<mxfile host="Electron" modified="2023-05-06T20:50:05.789Z" agent="Mozilla/5.0 (Macintosh; Intel Mac OS X 10_15_7) AppleWebKit/537.36 (KHTML, like Gecko) draw.io/21.2.1 Chrome/112.0.5615.87 Electron/24.1.2 Safari/537.36" etag="SPsiTlISYGVNfUN1wWvh" version="21.2.1" type="device">
  <diagram name="Page-1" id="nm2VYQq4ShMFS5RpiNxt">
    <mxGraphModel dx="1434" dy="854" grid="1" gridSize="10" guides="1" tooltips="1" connect="1" arrows="1" fold="1" page="1" pageScale="1" pageWidth="850" pageHeight="1100" math="0" shadow="0">
      <root>
        <mxCell id="0" />
        <mxCell id="1" parent="0" />
        <mxCell id="0j4g9ItMhri5ZThJZ_VP-1" value="&amp;lt;&amp;lt;Interface&amp;gt;&amp;gt;&lt;br&gt;MCube" style="swimlane;fontStyle=1;align=center;verticalAlign=top;childLayout=stackLayout;horizontal=1;startSize=40;horizontalStack=0;resizeParent=1;resizeParentMax=0;resizeLast=0;collapsible=1;marginBottom=0;whiteSpace=wrap;html=1;" vertex="1" parent="1">
          <mxGeometry x="470" y="200" width="160" height="74" as="geometry" />
        </mxCell>
        <mxCell id="0j4g9ItMhri5ZThJZ_VP-3" value="" style="line;strokeWidth=1;fillColor=none;align=left;verticalAlign=middle;spacingTop=-1;spacingLeft=3;spacingRight=3;rotatable=0;labelPosition=right;points=[];portConstraint=eastwest;strokeColor=inherit;" vertex="1" parent="0j4g9ItMhri5ZThJZ_VP-1">
          <mxGeometry y="40" width="160" height="8" as="geometry" />
        </mxCell>
        <mxCell id="0j4g9ItMhri5ZThJZ_VP-4" value="+ place(): str" style="text;strokeColor=none;fillColor=none;align=left;verticalAlign=top;spacingLeft=4;spacingRight=4;overflow=hidden;rotatable=0;points=[[0,0.5],[1,0.5]];portConstraint=eastwest;whiteSpace=wrap;html=1;" vertex="1" parent="0j4g9ItMhri5ZThJZ_VP-1">
          <mxGeometry y="48" width="160" height="26" as="geometry" />
        </mxCell>
        <mxCell id="0j4g9ItMhri5ZThJZ_VP-35" style="rounded=0;orthogonalLoop=1;jettySize=auto;html=1;endArrow=block;endFill=0;dashed=1;" edge="1" parent="1" source="0j4g9ItMhri5ZThJZ_VP-5" target="0j4g9ItMhri5ZThJZ_VP-1">
          <mxGeometry relative="1" as="geometry" />
        </mxCell>
        <mxCell id="0j4g9ItMhri5ZThJZ_VP-5" value="Grass" style="swimlane;fontStyle=1;align=center;verticalAlign=top;childLayout=stackLayout;horizontal=1;startSize=26;horizontalStack=0;resizeParent=1;resizeParentMax=0;resizeLast=0;collapsible=1;marginBottom=0;whiteSpace=wrap;html=1;" vertex="1" parent="1">
          <mxGeometry x="290" y="370" width="160" height="34" as="geometry" />
        </mxCell>
        <mxCell id="0j4g9ItMhri5ZThJZ_VP-6" value="" style="line;strokeWidth=1;fillColor=none;align=left;verticalAlign=middle;spacingTop=-1;spacingLeft=3;spacingRight=3;rotatable=0;labelPosition=right;points=[];portConstraint=eastwest;strokeColor=inherit;" vertex="1" parent="0j4g9ItMhri5ZThJZ_VP-5">
          <mxGeometry y="26" width="160" height="8" as="geometry" />
        </mxCell>
        <mxCell id="0j4g9ItMhri5ZThJZ_VP-36" style="rounded=0;orthogonalLoop=1;jettySize=auto;html=1;endArrow=block;endFill=0;dashed=1;" edge="1" parent="1" source="0j4g9ItMhri5ZThJZ_VP-8" target="0j4g9ItMhri5ZThJZ_VP-1">
          <mxGeometry relative="1" as="geometry" />
        </mxCell>
        <mxCell id="0j4g9ItMhri5ZThJZ_VP-8" value="Stone" style="swimlane;fontStyle=1;align=center;verticalAlign=top;childLayout=stackLayout;horizontal=1;startSize=26;horizontalStack=0;resizeParent=1;resizeParentMax=0;resizeLast=0;collapsible=1;marginBottom=0;whiteSpace=wrap;html=1;" vertex="1" parent="1">
          <mxGeometry x="610" y="360" width="160" height="34" as="geometry" />
        </mxCell>
        <mxCell id="0j4g9ItMhri5ZThJZ_VP-9" value="" style="line;strokeWidth=1;fillColor=none;align=left;verticalAlign=middle;spacingTop=-1;spacingLeft=3;spacingRight=3;rotatable=0;labelPosition=right;points=[];portConstraint=eastwest;strokeColor=inherit;" vertex="1" parent="0j4g9ItMhri5ZThJZ_VP-8">
          <mxGeometry y="26" width="160" height="8" as="geometry" />
        </mxCell>
        <mxCell id="0j4g9ItMhri5ZThJZ_VP-38" style="rounded=0;orthogonalLoop=1;jettySize=auto;html=1;endArrow=block;endFill=0;dashed=1;" edge="1" parent="1" source="0j4g9ItMhri5ZThJZ_VP-11" target="0j4g9ItMhri5ZThJZ_VP-1">
          <mxGeometry relative="1" as="geometry" />
        </mxCell>
        <mxCell id="0j4g9ItMhri5ZThJZ_VP-11" value="Brick" style="swimlane;fontStyle=1;align=center;verticalAlign=top;childLayout=stackLayout;horizontal=1;startSize=26;horizontalStack=0;resizeParent=1;resizeParentMax=0;resizeLast=0;collapsible=1;marginBottom=0;whiteSpace=wrap;html=1;" vertex="1" parent="1">
          <mxGeometry x="350" y="450" width="160" height="34" as="geometry" />
        </mxCell>
        <mxCell id="0j4g9ItMhri5ZThJZ_VP-12" value="" style="line;strokeWidth=1;fillColor=none;align=left;verticalAlign=middle;spacingTop=-1;spacingLeft=3;spacingRight=3;rotatable=0;labelPosition=right;points=[];portConstraint=eastwest;strokeColor=inherit;" vertex="1" parent="0j4g9ItMhri5ZThJZ_VP-11">
          <mxGeometry y="26" width="160" height="8" as="geometry" />
        </mxCell>
        <mxCell id="0j4g9ItMhri5ZThJZ_VP-37" style="rounded=0;orthogonalLoop=1;jettySize=auto;html=1;endArrow=block;endFill=0;dashed=1;" edge="1" parent="1" source="0j4g9ItMhri5ZThJZ_VP-14" target="0j4g9ItMhri5ZThJZ_VP-1">
          <mxGeometry relative="1" as="geometry" />
        </mxCell>
        <mxCell id="0j4g9ItMhri5ZThJZ_VP-14" value="Dirt" style="swimlane;fontStyle=1;align=center;verticalAlign=top;childLayout=stackLayout;horizontal=1;startSize=26;horizontalStack=0;resizeParent=1;resizeParentMax=0;resizeLast=0;collapsible=1;marginBottom=0;whiteSpace=wrap;html=1;" vertex="1" parent="1">
          <mxGeometry x="540" y="450" width="160" height="34" as="geometry" />
        </mxCell>
        <mxCell id="0j4g9ItMhri5ZThJZ_VP-15" value="" style="line;strokeWidth=1;fillColor=none;align=left;verticalAlign=middle;spacingTop=-1;spacingLeft=3;spacingRight=3;rotatable=0;labelPosition=right;points=[];portConstraint=eastwest;strokeColor=inherit;" vertex="1" parent="0j4g9ItMhri5ZThJZ_VP-14">
          <mxGeometry y="26" width="160" height="8" as="geometry" />
        </mxCell>
        <mxCell id="0j4g9ItMhri5ZThJZ_VP-29" style="rounded=0;orthogonalLoop=1;jettySize=auto;html=1;endArrow=classic;endFill=1;" edge="1" parent="1" source="0j4g9ItMhri5ZThJZ_VP-18" target="0j4g9ItMhri5ZThJZ_VP-1">
          <mxGeometry relative="1" as="geometry" />
        </mxCell>
        <mxCell id="0j4g9ItMhri5ZThJZ_VP-18" value="GameMode" style="swimlane;fontStyle=1;align=center;verticalAlign=top;childLayout=stackLayout;horizontal=1;startSize=40;horizontalStack=0;resizeParent=1;resizeParentMax=0;resizeLast=0;collapsible=1;marginBottom=0;whiteSpace=wrap;html=1;" vertex="1" parent="1">
          <mxGeometry x="320" y="60" width="160" height="100" as="geometry" />
        </mxCell>
        <mxCell id="0j4g9ItMhri5ZThJZ_VP-19" value="" style="line;strokeWidth=1;fillColor=none;align=left;verticalAlign=middle;spacingTop=-1;spacingLeft=3;spacingRight=3;rotatable=0;labelPosition=right;points=[];portConstraint=eastwest;strokeColor=inherit;" vertex="1" parent="0j4g9ItMhri5ZThJZ_VP-18">
          <mxGeometry y="40" width="160" height="8" as="geometry" />
        </mxCell>
        <mxCell id="0j4g9ItMhri5ZThJZ_VP-20" value="+ create_cube(): MCube&lt;br&gt;" style="text;strokeColor=none;fillColor=none;align=left;verticalAlign=top;spacingLeft=4;spacingRight=4;overflow=hidden;rotatable=0;points=[[0,0.5],[1,0.5]];portConstraint=eastwest;whiteSpace=wrap;html=1;" vertex="1" parent="0j4g9ItMhri5ZThJZ_VP-18">
          <mxGeometry y="48" width="160" height="26" as="geometry" />
        </mxCell>
        <mxCell id="0j4g9ItMhri5ZThJZ_VP-39" value="+ place(MCube): str" style="text;strokeColor=none;fillColor=none;align=left;verticalAlign=top;spacingLeft=4;spacingRight=4;overflow=hidden;rotatable=0;points=[[0,0.5],[1,0.5]];portConstraint=eastwest;whiteSpace=wrap;html=1;" vertex="1" parent="0j4g9ItMhri5ZThJZ_VP-18">
          <mxGeometry y="74" width="160" height="26" as="geometry" />
        </mxCell>
        <mxCell id="0j4g9ItMhri5ZThJZ_VP-28" style="rounded=0;orthogonalLoop=1;jettySize=auto;html=1;endArrow=block;endFill=0;" edge="1" parent="1" source="0j4g9ItMhri5ZThJZ_VP-21" target="0j4g9ItMhri5ZThJZ_VP-18">
          <mxGeometry relative="1" as="geometry" />
        </mxCell>
        <mxCell id="0j4g9ItMhri5ZThJZ_VP-21" value="Creative" style="swimlane;fontStyle=1;align=center;verticalAlign=top;childLayout=stackLayout;horizontal=1;startSize=40;horizontalStack=0;resizeParent=1;resizeParentMax=0;resizeLast=0;collapsible=1;marginBottom=0;whiteSpace=wrap;html=1;" vertex="1" parent="1">
          <mxGeometry x="70" y="174" width="160" height="74" as="geometry" />
        </mxCell>
        <mxCell id="0j4g9ItMhri5ZThJZ_VP-22" value="" style="line;strokeWidth=1;fillColor=none;align=left;verticalAlign=middle;spacingTop=-1;spacingLeft=3;spacingRight=3;rotatable=0;labelPosition=right;points=[];portConstraint=eastwest;strokeColor=inherit;" vertex="1" parent="0j4g9ItMhri5ZThJZ_VP-21">
          <mxGeometry y="40" width="160" height="8" as="geometry" />
        </mxCell>
        <mxCell id="0j4g9ItMhri5ZThJZ_VP-23" value="+ create_cube(): MCube" style="text;strokeColor=none;fillColor=none;align=left;verticalAlign=top;spacingLeft=4;spacingRight=4;overflow=hidden;rotatable=0;points=[[0,0.5],[1,0.5]];portConstraint=eastwest;whiteSpace=wrap;html=1;" vertex="1" parent="0j4g9ItMhri5ZThJZ_VP-21">
          <mxGeometry y="48" width="160" height="26" as="geometry" />
        </mxCell>
        <mxCell id="0j4g9ItMhri5ZThJZ_VP-27" style="rounded=0;orthogonalLoop=1;jettySize=auto;html=1;endArrow=block;endFill=0;" edge="1" parent="1" source="0j4g9ItMhri5ZThJZ_VP-24" target="0j4g9ItMhri5ZThJZ_VP-18">
          <mxGeometry relative="1" as="geometry" />
        </mxCell>
        <mxCell id="0j4g9ItMhri5ZThJZ_VP-24" value="Survival" style="swimlane;fontStyle=1;align=center;verticalAlign=top;childLayout=stackLayout;horizontal=1;startSize=40;horizontalStack=0;resizeParent=1;resizeParentMax=0;resizeLast=0;collapsible=1;marginBottom=0;whiteSpace=wrap;html=1;" vertex="1" parent="1">
          <mxGeometry x="70" y="310" width="160" height="74" as="geometry" />
        </mxCell>
        <mxCell id="0j4g9ItMhri5ZThJZ_VP-25" value="" style="line;strokeWidth=1;fillColor=none;align=left;verticalAlign=middle;spacingTop=-1;spacingLeft=3;spacingRight=3;rotatable=0;labelPosition=right;points=[];portConstraint=eastwest;strokeColor=inherit;" vertex="1" parent="0j4g9ItMhri5ZThJZ_VP-24">
          <mxGeometry y="40" width="160" height="8" as="geometry" />
        </mxCell>
        <mxCell id="0j4g9ItMhri5ZThJZ_VP-26" value="+ create_cube(): MCube" style="text;strokeColor=none;fillColor=none;align=left;verticalAlign=top;spacingLeft=4;spacingRight=4;overflow=hidden;rotatable=0;points=[[0,0.5],[1,0.5]];portConstraint=eastwest;whiteSpace=wrap;html=1;" vertex="1" parent="0j4g9ItMhri5ZThJZ_VP-24">
          <mxGeometry y="48" width="160" height="26" as="geometry" />
        </mxCell>
      </root>
    </mxGraphModel>
  </diagram>
</mxfile>
